<?xml version="1.0" standalone="no"?><!DOCTYPE svg PUBLIC "-//W3C//DTD SVG 1.1//EN" "http://www.w3.org/Graphics/SVG/1.1/DTD/svg11.dtd"><svg t="1685412434832" class="icon" viewBox="0 0 1024 1024" version="1.1" xmlns="http://www.w3.org/2000/svg" p-id="4444" width="64" height="64" xmlns:xlink="http://www.w3.org/1999/xlink"><path d="M919.03488 530.32448c-0.14848-70.25152-42.34752-171.6736-92.13952-221.47072l-228.23424-228.23936C576.27136 58.34752 546.5856 46.08 515.08224 46.08c-30.27456 0-58.79296 11.34592-80.65536 32.0256L205.04064 307.49696c-49.52576 49.51552-91.2896 150.68672-91.20256 220.8768l1.21856 327.31648c0.32256 64.73728 53.25312 117.66784 117.92896 117.99552l569.95328 1.21344c64.62464-0.07168 117.23264-52.68992 117.28384-117.22752l-1.18784-327.3472z m-70.33856 371.07712c-16.06656 16.39424-37.31968 25.42592-60.02688 25.42592l-541.94176-1.16224c-46.7968-0.10752-84.94592-38.97344-85.04832-86.6048l-1.16224-297.4464c-0.128-60.83072 36.75648-151.87456 78.93504-194.82624l216.09472-220.15488c15.88224-16.1792 37.16096-25.088 59.90912-25.088 22.85568 0 44.2624 8.98048 60.26752 25.2928l217.02144 221.08672c42.30656 43.09504 79.52896 134.22592 79.65696 194.98496l1.13664 297.46176a86.52288 86.52288 0 0 1-24.84224 61.0304z" p-id="4445" fill="#ffffff"></path><path d="M515.61984 201.856l-1.08032-0.00512c-28.75392 0-55.50592 11.02848-75.33568 31.05792-19.32288 19.52256-29.81376 45.44512-29.53216 73.00096 0.57344 58.35264 49.36704 106.30656 108.75904 106.89536l1.07008 0.00512c28.75904 0 55.52128-11.02848 75.35104-31.06304 19.328-19.52256 29.81888-45.44512 29.54752-73.02144-0.52736-58.33728-49.32608-106.28096-108.77952-106.86976z m51.01056 152.9088c-12.64128 12.76928-29.696 19.79904-48.0256 19.79904h-0.68096c-37.85728-0.37888-68.95616-30.94016-69.3248-68.13696a64.7168 64.7168 0 0 1 18.82112-46.52544c12.64128-12.76416 29.69088-19.79904 48.02048-19.79904h0.6912c37.89312 0.37888 68.99712 30.93504 69.3248 68.11648a64.7168 64.7168 0 0 1-18.82624 46.54592zM484.48512 874.66496v-86.1952H365.71136v-37.1456h118.77376v-62.43328H365.71136v-36.66944h111.97952L349.9776 450.56h51.51744c44.0832 84.27008 114.74944 184.39168 114.74944 184.39168h8.82176l113.53088-184.22784h45.49632l-131.1488 201.66656h109.57824v36.35712h-114.9952v62.58688h114.9952V788.48h-115.16416v86.1952h-62.8736z" p-id="4446" fill="#ffffff"></path></svg>