<?xml version="1.0" standalone="no"?><!DOCTYPE svg PUBLIC "-//W3C//DTD SVG 1.1//EN" "http://www.w3.org/Graphics/SVG/1.1/DTD/svg11.dtd"><svg t="1685412505400" class="icon" viewBox="0 0 1024 1024" version="1.1" xmlns="http://www.w3.org/2000/svg" p-id="5091" xmlns:xlink="http://www.w3.org/1999/xlink" width="64" height="64"><path d="M510.623142 63.59541c-247.244081 0-447.674972 200.430892-447.674972 447.673949S263.379061 958.944332 510.623142 958.944332c247.242034 0 447.673949-200.430892 447.673949-447.674972S757.865175 63.59541 510.623142 63.59541zM510.623142 894.217145c-211.496925 0-382.947785-171.451884-382.947785-382.947785S299.126216 128.322597 510.623142 128.322597c211.494878 0 382.946762 171.45086 382.946762 382.946762S722.11802 894.217145 510.623142 894.217145z" fill="#ffffff" p-id="5092"></path><path d="M702.472588 319.840492 562.053488 494.110561 702.472588 494.110561l0 45.290509L543.782356 539.40107l0 62.419631L702.472588 601.820702l0 45.870724L543.782356 647.691425l0 80.638575-66.318428 0 0-80.638575L318.773695 647.691425l0-45.870724 158.691255 0 0-62.419631L318.773695 539.40107l0-45.290509 139.064242 0L318.773695 319.840492l74.777077 0 118.426203 162.947186 1.351787 0c4.735861-11.222599 118.426203-162.947186 118.426203-162.947186L702.472588 319.840492z" fill="#ffffff" p-id="5093"></path></svg>