<svg xmlns="http://www.w3.org/2000/svg" width="300" height="300" viewBox="0 0 300 300"><path d="M115.61 132.6c1 19.56 2.01 39.12 3.01 58.67 1.11 21.62 1.51 43.41 3.33 64.99 1.01 11.95 14.64 9.31 23.16 9.31h19.75c4.91 0 10.08-.08 12.38-5.4.94-2.18.85-4.69.97-7.02l.63-12.22 2.01-39.2 3.54-69.13c.22-4.25-6.38-4.23-6.6 0-2.07 40.42-4.15 80.84-6.22 121.26-.12 2.38.35 4.34-2.78 5.11-4.11 1.01-9.7 0-13.91 0H135.8c-2.83 0-6.18.76-7.25-2.55-.64-1.99-.25-4.95-.36-7.02l-.72-14-2.01-39.14c-1.09-21.22-2.18-42.44-3.26-63.66-.22-4.23-6.82-4.25-6.6 0Z" style="stroke-width:0"/><path d="M181.09 187.52c13.94-.43 24.76-11.15 25.12-25.14.18-7.05 0-14.14 0-21.19s.24-14.79 0-22.16c-.2-6.3-2.72-12.16-7.62-16.23-4.18-3.48-8.77-4.25-13.91-5-9.44-1.38-18.7-3.94-28.24-4.69-12.24-.97-24.03 1.56-35.98 3.75-3.83.7-8.16.86-11.84 2.01-6.12 1.91-11.16 6.65-13.44 12.64-2.56 6.72-1.39 15.36-1.39 22.39 0 9.37-.19 18.77 0 28.14.28 13.79 10.96 25.48 25.12 25.48 4.25 0 4.25-6.6 0-6.6-11.07 0-18.45-9.2-18.52-19.71-.05-7.17 0-14.33 0-21.5 0-6.74-.22-13.52 0-20.25.17-5.11 2.2-9.75 6.62-12.6 3.5-2.26 7.62-2.24 11.59-2.97 7.95-1.46 15.99-3.36 24.05-4.11 10.87-1.01 21.25.9 31.86 2.84 8.41 1.54 19.62 1.37 23.75 10.23 2.49 5.34 1.36 13.03 1.36 18.74v27.31c0 3.14.09 6.23-.91 9.27-2.54 7.7-9.64 12.51-17.61 12.75-4.24.13-4.26 6.73 0 6.6Zm-9.27-124.66c-.32 11.9-9.68 21.82-21.82 21.82-11.94 0-21.78-9.92-21.82-21.82s9.96-21.82 21.82-21.82 21.5 9.93 21.82 21.82c.11 4.24 6.71 4.26 6.6 0-.32-11.76-7.24-22.34-18.37-26.58s-24.24-.8-31.87 8.39c-16.59 19.97 1.25 50.59 26.77 46.17 13.66-2.37 23.1-14.37 23.47-27.98.11-4.25-6.49-4.25-6.6 0Z" style="stroke-width:0"/><path d="M153.3 262.27v-70.51c0-4.25-6.6-4.25-6.6 0v70.51c0 4.25 6.6 4.25 6.6 0Zm38.4-60.74c.76 14.88 1.53 29.76 2.29 44.64.16 3.19.62 6.23 3.33 8.37s5.64 1.86 8.76 1.86h27c6.33 0 12-1.22 12.66-8.8.41-4.64.48-9.34.72-13.99.98-19.06 1.95-38.12 2.93-57.19.71-13.79 1.41-27.58 2.12-41.37.22-4.25-6.38-4.23-6.6 0-1.45 28.24-2.9 56.48-4.34 84.73l-1.07 20.89c-.13 2.48.81 8.13-2.3 9.14-2.03.66-5.4 0-7.5 0h-13.69c-3.71 0-14.09 2.08-15.35-2.51-.79-2.9-.35-6.74-.5-9.73l-.8-15.63-1.05-20.4c-.22-4.23-6.82-4.25-6.6 0Z" style="stroke-width:0"/><path d="M248.21 185.34c12.89-.43 22.81-10.27 23.17-23.2.2-7.22 0-14.47 0-21.7s.94-14.58-.35-21.42c-1.18-6.24-5.46-11.58-11.25-14.16-3.72-1.65-8.11-1.77-12.12-2.51-14.13-2.59-27.54-4.93-41.98-2.48-4.18.71-2.41 7.07 1.75 6.36 11.54-1.96 22.47-.45 33.79 1.62 8.05 1.47 19.45 1.29 22.77 10.3 1.84 5.01.79 11.79.79 16.99v23.2c0 2.75.15 5.53-.59 8.21-2 7.28-8.59 11.92-15.98 12.16-4.24.14-4.26 6.74 0 6.6Z" style="stroke-width:0"/><path d="M239.48 71.55c-.32 10.66-8.66 19.57-19.57 19.57s-19.53-8.91-19.57-19.57 8.51-19.19 18.88-19.55c11.18-.39 19.94 8.62 20.27 19.55.13 4.24 6.73 4.26 6.6 0-.32-10.76-6.55-20.4-16.7-24.38s-22.63-.85-29.7 7.82c-15.02 18.4 1.26 46.09 24.55 42.35 12.72-2.04 21.48-13.19 21.86-25.79.13-4.25-6.47-4.24-6.6 0ZM223.2 253.1v-64.19c0-4.25-6.6-4.25-6.6 0v64.19c0 4.25 6.6 4.25 6.6 0Zm-121.5-51.57c-.72 14.09-1.45 28.19-2.17 42.28-.11 2.11.51 5.1-2.09 5.99-1.9.65-5.16 0-7.15 0H65.38c-4.53 0-4.51-2.02-4.71-5.85l-.92-17.87-2.79-54.41c-.63-12.21-1.25-24.42-1.88-36.63-.22-4.23-6.82-4.25-6.6 0 1.58 30.88 3.17 61.76 4.75 92.63l.92 17.94c.29 5.67 2.42 10.46 9 10.79 8.29.41 16.71 0 25.01 0 7 0 16.73 1.39 17.73-8.19 1.61-15.43 1.6-31.18 2.39-46.68.22-4.25-6.38-4.23-6.6 0Z" style="stroke-width:0"/><path d="M51.79 178.74c-10.23 0-16.52-8.51-16.57-18.06-.03-7.07 0-14.15 0-21.22 0-5.57-.26-11.21 0-16.77.34-7.18 5.2-11.95 12.18-12.88 2.7-.36 5.36-.84 8.05-1.33 12.45-2.28 24.39-4.39 37.12-2.23 4.15.71 5.94-5.65 1.75-6.36-13.12-2.23-25.39-.56-38.26 1.79-10.09 1.85-20.95 2.3-25.75 13.11-2.91 6.55-1.69 15.29-1.69 22.26 0 8.16-.09 16.33 0 24.49.15 12.84 9.95 23.81 23.17 23.81 4.25 0 4.25-6.6 0-6.6Zm2.13-107.19c.32 10.77 6.55 20.4 16.7 24.38s22.63.85 29.7-7.82c15.02-18.4-1.26-46.09-24.55-42.35-12.72 2.04-21.48 13.19-21.86 25.79-.13 4.25 6.47 4.24 6.6 0 .32-10.66 8.66-19.57 19.57-19.57s19.53 8.91 19.57 19.57-8.51 19.19-18.88 19.55c-11.18.39-19.94-8.62-20.27-19.55-.13-4.24-6.73-4.26-6.6 0ZM83.4 253.1v-64.19c0-4.25-6.6-4.25-6.6 0v64.19c0 4.25 6.6 4.25 6.6 0Z" style="stroke-width:0"/></svg>