<svg xmlns="http://www.w3.org/2000/svg" width="300" height="300" viewBox="0 0 300 300"><path d="M253.41 188.41c10.45-16.07 16.59-35.22 16.59-55.83C270 75.93 224.07 30 167.42 30S64.84 75.93 64.84 132.58s45.93 102.58 102.58 102.58c20.6 0 39.76-6.13 55.83-16.59L270 235.16l-16.59-46.75Z" style="fill:none;stroke:#464646;stroke-linecap:round;stroke-linejoin:round;stroke-width:8px"/><path d="M160.57 258.39c-12.79 7.39-27.64 11.61-43.48 11.61-17.5 0-33.76-5.21-47.4-14.08L30 270l14.08-39.69C35.2 216.66 30 200.4 30 182.91c0-16.27 4.46-31.49 12.22-44.52m61.33-7.74h23.23c12.89-9.67 24.54-18.57 30.89-33.61 4.87-11.52 3.95-16.13 3.95-28.33 0 0 11.61-7.74 15.48 15.48 1.28 7.7 0 27.1-3.87 34.84m34.83 15.49c4.26 0 7.74 3.48 7.74 7.74h0c0 4.26-3.48 7.74-7.74 7.74h-7.74m3.87 0c4.26 0 7.74 3.48 7.74 7.74h0c0 4.26-3.48 7.74-7.74 7.74h-7.74" style="fill:none;stroke:#464646;stroke-linecap:round;stroke-linejoin:round;stroke-width:8px"/><path d="M200.32 165.48c4.26 0 7.74 3.48 7.74 7.74h0c0 4.26-3.48 7.74-7.74 7.74h-25.29c-8.92 0-17.82-.88-26.57-2.63l-6.2-1.24h-19.35m50.32-58.06h34.84c4.26 0 7.74 3.48 7.74 7.74h0c0 4.26-3.48 7.74-7.74 7.74h-7.74" style="fill:none;stroke:#464646;stroke-linecap:round;stroke-linejoin:round;stroke-width:8px"/></svg>