<svg xmlns="http://www.w3.org/2000/svg" width="300" height="300" viewBox="0 0 300 300"><path d="m193.14 268.83-2.4-3.63-25.41-7.63c-1.12-.34-2.21-.75-3.24-1.29-10.17-5.31-18.93-13.77-25.19-23.22l-19.22-29c-3.3-4.98-5.53-9.38-.35-12.81 5.18-3.43 18.8-.27 22.1 4.71l14.98 22.61-56.56-85.79c-3.3-4.98-1.77-11.87 3.42-15.31 5.18-3.43 12.12-2.16 15.43 2.82l36.58 55.65-5.12-7.73c-3.3-4.98-1.77-11.87 3.42-15.31 5.18-3.43 12.12-2.16 15.43 2.82l7.62 11.5-2.81-4.25c-3.3-4.98-1.77-11.87 3.42-15.31 5.18-3.43 12.12-2.16 15.43 2.82l7.81 11.78-3-4.53c-3.3-4.98-1.77-11.87 3.42-15.31 5.18-3.43 12.12-2.16 15.43 2.82l24.48 36.88c9.29 14.02 15.95 33.03 14.22 49.98-.59 5.82-2.15 11.96 1.14 17.23l10.86 19.49" style="fill:none;stroke:#464646;stroke-linecap:round;stroke-linejoin:round;stroke-width:8px"/><path d="M84.83 146.17c-4.77-5.4-7.67-11.39-7.67-19.17 0-16.94 13.73-30.67 30.67-30.67 12.87 0 23.88 7.93 28.44 19.16" style="fill:none;stroke:#464646;stroke-linecap:round;stroke-linejoin:round;stroke-width:8px"/><path d="M134.67 268.83H50.33c-8.47 0-15.33-6.87-15.33-15.33v-207c0-8.47 6.87-15.33 15.33-15.33H161.5c8.47 0 15.33 6.87 15.33 15.33v69M92.5 245.83h26.83" style="fill:none;stroke:#464646;stroke-linecap:round;stroke-linejoin:round;stroke-width:8px"/></svg>