<svg xmlns="http://www.w3.org/2000/svg" width="300" height="300" viewBox="0 0 300 300"><path d="M189.08 186.71c-12.27 3.79-24.53 7.59-36.8 11.38l3.34 3.34c2.74-11.19 5.47-22.39 8.21-33.58.21-.86.6-1.83.66-2.72.08-1.09.96-1.57-.42.07.36-.42.77-.85 1.17-1.23 2.47-2.34 4.73-4.97 7.07-7.44l57.26-60.2c6.58-6.92 13.16-13.83 19.73-20.75 3.66-3.85 8.53-6.57 13.81-3.37 2.34 1.41 4.35 3.79 6.31 5.64 2.21 2.08 5.28 4.33 6.73 7.06 4.41 8.35-6.01 15.99-11.05 21.29-9.1 9.57-18.21 19.14-27.31 28.72-16.64 17.49-33.28 34.99-49.92 52.48-2.41 2.53 1.42 6.38 3.84 3.84 15.27-16.05 30.54-32.11 45.8-48.16l30.03-31.58c4.61-4.85 12.22-10.63 14.39-17.24 2.91-8.87-2.8-14.72-8.67-20.25s-11.07-10.39-19.47-8.03c-6.98 1.96-12.99 10.66-17.73 15.64-20.28 21.32-40.55 42.64-60.83 63.96-3.92 4.12-7.84 8.24-11.75 12.36-1.45 1.52-3.23 2.95-4.02 4.91-2.42 5.93-3.22 13.18-4.74 19.38s-2.89 11.83-4.34 17.74c-.47 1.94 1.3 3.97 3.34 3.34 12.27-3.79 24.53-7.59 36.8-11.38 3.33-1.03 1.91-6.27-1.44-5.23Z" style="stroke-width:0"/><path d="M233.79 88.01c9.22 8.68 18.44 17.36 27.65 26.04 2.54 2.39 6.39-1.44 3.84-3.84-9.22-8.68-18.44-17.36-27.65-26.04-2.54-2.39-6.39 1.44-3.84 3.84Zm-73.56 77.2c9.22 8.68 18.44 17.36 27.65 26.04 2.54 2.39 6.39-1.44 3.84-3.84-9.22-8.68-18.44-17.36-27.65-26.04-2.54-2.39-6.39 1.44-3.84 3.84Z" style="stroke-width:0"/><path d="M247.61 97.19c-21.43 22.49-42.86 44.99-64.3 67.48-3.09 3.24-6.17 6.48-9.26 9.72-2.41 2.53 1.42 6.37 3.84 3.84 21.43-22.49 42.86-44.99 64.3-67.48 3.09-3.24 6.17-6.48 9.26-9.72 2.41-2.53-1.42-6.37-3.84-3.84ZM81.35 95.35h103.68c3.49 0 3.5-5.43 0-5.43H81.35c-3.49 0-3.5 5.43 0 5.43Zm0 32.46h94.63c3.49 0 3.5-5.43 0-5.43H81.35c-3.49 0-3.5 5.43 0 5.43Zm0 32.47h47.32c3.49 0 3.5-5.43 0-5.43H81.35c-3.49 0-3.5 5.43 0 5.43Z" style="stroke-width:0"/><path d="M212.83 93.06V75.11c0-5.23 1.26-12.61-1.03-17.54-3.9-8.42-15.64-6.29-23.21-6.29H95.68c-9.96 0-19.94-.13-29.9 0-5.38.07-10.48 2.42-11.89 8.15-.54 2.17-.36 4.52-.36 6.75v81.5c0 24.73-.58 49.54 0 74.26.01.45 0 .9 0 1.35 0 3.49 5.43 3.5 5.43 0V65.2c0-3.91.13-7.94 5.37-8.49 6.34-.67 13.13 0 19.49 0h90.2c9.12 0 18.67-.83 27.76 0 7.66.7 5.61 11.05 5.61 16.47v19.89c0 3.49 5.43 3.5 5.43 0Z" style="stroke-width:0"/><path d="M38.13 243.3c-10.26-.42-15.18-10.97-15.41-20.02l-2.71 2.71h153.86l-2.71-2.71c.29 11.09 6.37 23.57 18.48 25.26s20.64-8.75 22.64-19.43c1.28-6.82.57-14.28.57-21.17v-20.27c0-3.49-5.43-3.5-5.43 0 0 11.24.05 22.49 0 33.73-.04 8.08-2.45 17.57-10.74 20.93-12.09 4.9-19.82-8.88-20.08-19.05-.04-1.47-1.21-2.71-2.71-2.71H20c-1.44 0-2.75 1.24-2.71 2.71.31 12.18 7.48 24.91 20.84 25.45 3.49.14 3.49-5.29 0-5.43Z" style="stroke-width:0"/><path d="M191.99 243.3H38.13c-3.49 0-3.5 5.43 0 5.43h153.86c3.49 0 3.5-5.43 0-5.43Z" style="stroke-width:0"/></svg>