<svg xmlns="http://www.w3.org/2000/svg" width="300" height="300" viewBox="0 0 300 300"><path d="M103.34 95.46h94.63c3.49 0 3.5-5.43 0-5.43h-94.63c-3.49 0-3.5 5.43 0 5.43Zm0 32.47h94.63c3.49 0 3.5-5.43 0-5.43h-94.63c-3.49 0-3.5 5.43 0 5.43Zm0 32.46h94.63c3.49 0 3.5-5.43 0-5.43h-94.63c-3.49 0-3.5 5.43 0 5.43Z" style="stroke-width:0"/><path d="M60.12 243.41c-10.26-.42-15.18-10.97-15.41-20.02L42 226.1h153.86l-2.71-2.71c.36 14.13 12.08 30.85 27.94 23.92 12-5.25 13.74-18.34 13.74-29.86V72.35c0-3.83.48-8.02-.15-11.83-1.42-8.46-8.96-9.13-15.77-9.13H94.18c-5.69 0-12.28-.96-16.28 4.11-3.09 3.9-2.36 9.29-2.36 13.95v153.94c0 3.49 5.43 3.5 5.43 0V67.19c0-4.6-.59-9.83 5.77-10.37 4.8-.41 9.82 0 14.63 0h119.05c1.17 0 2.41-.12 3.57 0 5.97.61 5.41 6 5.41 10.4v149.46c0 3.87.3 8-.5 11.81-1.58 7.51-7.49 15.78-16.1 14.88-9.6-1.01-14-11.53-14.22-19.97-.04-1.47-1.21-2.71-2.71-2.71H41.99c-1.44 0-2.75 1.24-2.71 2.71.31 12.18 7.48 24.91 20.84 25.45 3.49.14 3.49-5.29 0-5.43Z" style="stroke-width:0"/><path d="M213.98 243.41H60.12c-3.49 0-3.5 5.43 0 5.43h153.86c3.49 0 3.5-5.43 0-5.43Z" style="stroke-width:0"/></svg>