<svg xmlns="http://www.w3.org/2000/svg" width="300" height="300" viewBox="0 0 300 300"><path d="M82.32 193.99c2.79 11.57 8.59 21.01 16.42 29.8 2.16 2.42 4.66 4.74 6.56 7.36 3.42 4.69 1.89 10.28-3.75 11.59-3.58.83-7.72 2.19-11.44 1.99-6.23-.34-10.62-5.2-13.1-10.48-2.77-5.89-5.29-11.91-7.93-17.85-2.82-6.34-5.63-12.69-8.45-19.03-1.72-3.87-7.41-.52-5.7 3.33 2.88 6.49 5.77 12.99 8.65 19.48s5.39 14.11 9.25 20.34c3.5 5.65 9.27 9.96 15.98 10.69 4.59.5 9.28-.99 13.74-1.94 10.93-2.33 14.56-14.26 7.35-22.85-2.89-3.44-6.03-6.68-8.98-10.07-6.09-7-10.08-15.11-12.26-24.11-1-4.13-7.36-2.38-6.36 1.75Z" style="stroke-width:0"/><path d="M155.66 49.25c-5.76 0-12.4 5.08-15.7 9.41-3.73 4.9-7.79 9.55-11.64 14.39-8.55 10.76-15.69 24.8-27.81 32.02-10.96 6.53-24.76 8.11-37.03 10.72-6.72 1.43-13.48 2.75-20.18 4.31-12.32 2.86-25.1 12.48-28.08 25.32-1.74 7.49 1.15 15.57 2.71 22.89 1.75 8.22 2.49 17.11 8.63 23.42 8.64 8.86 22.52 11.65 34.33 9.37 6.77-1.3 13.49-2.88 20.23-4.32 12.93-2.77 27.37-7.53 40.69-4.82 6.73 1.37 12.53 4.65 18.42 8.04 8.53 4.9 17.19 9.59 26.07 13.84 4.67 2.23 9.14 5.3 14.25 6.36 3.1.64 6.38.76 9.5.21.95-.17 1.52-.44 2.35-.61.05 0 1.63-.32.47.03 1.56-.47 3.09-1 4.59-1.65 10.39-4.53 21.68-15.11 19.31-27.52-1.04-5.45-2.51-10.84-3.76-16.25-3.53-15.27-7.3-30.51-10.6-45.84-2.89-13.38-5.27-26.89-7.9-40.32-1.39-7.09-2.72-14.19-4.16-21.26-1.83-8.97-9.26-14.26-17.72-16.75-5.81-1.71-11.92-2-17.86-.88-4.17.79-2.4 7.15 1.75 6.36 9.17-1.73 24.51 1.1 27.2 11.67 1.28 5.05 2.02 10.3 3.01 15.41 2.97 15.19 5.9 30.4 8.92 45.58 2.09 10.54 4.79 20.98 7.22 31.45 1.89 8.16 3.77 16.32 5.66 24.48 1.31 5.67 3.23 10.53.13 16.08-3.47 6.2-10.23 10.82-16.92 12.89-.84.26-2.21.98-3.01 1.08-.94.12-2.94-.15-4.25-.24-3.94-.27-6.82-1.96-10.17-3.76-5.43-2.91-11.13-5.34-16.59-8.22-7.3-3.86-14.3-8.36-21.7-12.04-20.14-10.02-41.46-2.93-62.18 1.49-7.82 1.67-16.14 4.38-24.22 3.57-11.17-1.13-20.73-7-23.14-18.27-1.38-6.48-2.77-12.96-4.15-19.43-1.02-4.78-1.69-8.96.38-13.69 2.92-6.66 8.94-11.89 15.42-14.97 7.13-3.4 15.88-4.25 23.54-5.89 9.88-2.11 19.93-3.82 29.59-6.8s17.71-7.73 24.2-15.29c4.81-5.61 8.86-11.89 13.34-17.76s8.92-11.13 13.52-16.6c3.23-3.84 7.45-10.6 13.32-10.6 4.25 0 4.25-6.6 0-6.6Z" style="stroke-width:0"/><path d="M200.45 212.52c-10.02-46.93-20.03-93.86-30.05-140.8-1.4-6.55-2.8-13.1-4.19-19.65-.89-4.15-7.25-2.39-6.36 1.75 10.02 46.93 20.03 93.86 30.05 140.8 1.4 6.55 2.8 13.1 4.19 19.65.89 4.15 7.25 2.39 6.36-1.75ZM77.31 118.13l15.39 72.1c.89 4.15 7.25 2.39 6.36-1.75l-15.39-72.1c-.89-4.15-7.25-2.39-6.36 1.75Zm-38.07 39.91c3.2-.68 6.4-1.37 9.61-2.05 4.15-.89 2.39-7.25-1.75-6.36-3.2.68-6.4 1.37-9.61 2.05-4.15.89-2.39 7.25 1.75 6.36Zm3.54 16.59c3.2-.68 6.4-1.37 9.61-2.05 4.15-.89 2.39-7.25-1.75-6.36-3.2.68-6.4 1.37-9.61 2.05-4.15.89-2.39 7.25 1.75 6.36Zm219.14-55.54c7.02-1.5 14.04-3 21.06-4.49 4.15-.89 2.39-7.25-1.75-6.36-7.02 1.5-14.04 3-21.06 4.49-4.15.89-2.39 7.25 1.75 6.36Zm-26.44-45.15c4.21-5.81 8.42-11.63 12.63-17.44 2.49-3.45-3.23-6.74-5.7-3.33-4.21 5.81-8.42 11.63-12.63 17.44-2.49 3.45 3.23 6.74 5.7 3.33Zm15.78 96.25c6.22 3.59 12.43 7.18 18.65 10.77 3.69 2.13 7.01-3.57 3.33-5.7-6.22-3.59-12.43-7.18-18.65-10.77-3.69-2.13-7.01 3.57-3.33 5.7Zm-53.12-53.43c14.75-3.15 20.18 23.64 5.33 26.81-4.15.89-2.39 7.25 1.75 6.36 23.08-4.93 14.33-44.48-8.83-39.54-4.15.89-2.39 7.25 1.75 6.36Z" style="stroke-width:0"/></svg>