<svg xmlns="http://www.w3.org/2000/svg" width="300" height="300" viewBox="0 0 300 300"><path d="M227.71 201.11c8-11.99 25.86-18.57 29.01-33.61 1.03-4.93.05-10.61-4.95-12.94-7.18-3.34-13.88 3.18-19.08 7.26-6.93 5.43-14.08 10.8-21.82 15.06-6.96 3.82-15.25 4.84-21.49 9.99-5 4.13-6.2 11.33-6.85 17.46-.88 8.32.99 16.3-1.34 24.53-1.16 4.09 5.21 5.84 6.36 1.75 1.72-6.08 1.75-11.96 1.47-18.22-.25-5.63-.26-12.79 2.52-17.92 3.2-5.9 11.58-6.88 17.23-9.27s11.12-6.03 16.36-9.59c5.73-3.89 10.95-8.41 16.56-12.46 2.66-1.93 8.11-5 8.83.16.33 2.35-.78 5.02-1.91 7.01-3.27 5.82-8.98 9.7-14 13.86-4.83 4.01-9.11 8.35-12.61 13.59-2.37 3.54 3.35 6.85 5.7 3.33Z" style="stroke-width:0"/><path d="M224.8 237.5c1.48-6.63 4.37-11.99 9.82-16.16s11.41-7.14 16.77-11.25c12.03-9.22 18.91-22.5 22.2-37.11s4.75-32.28 2-47.24c-.93-5.07-4.29-9.52-9.95-9.11s-8.17 5.71-9.44 10.66c-2.03 7.92-1.7 15.52-1.37 23.58.17 4.07-2.51 8.56-3.98 12.27-1.56 3.95 4.82 5.66 6.36 1.75 1.3-3.29 3.02-6.62 3.92-10.05 1.01-3.87-.26-8.24-.25-12.2 0-3.66.41-7.29 1.1-10.88.42-2.21 2.19-11.65 6.09-7.8 2.37 2.34 1.61 9.6 1.75 12.58.44 9.19.08 18.57-1.29 27.68-2.78 18.48-10.4 33.79-26.21 44.24-5.15 3.41-10.77 6.3-15.23 10.66-4.64 4.54-7.25 10.34-8.66 16.61-.92 4.14 5.44 5.9 6.36 1.75Z" style="stroke-width:0"/><path d="M230.36 245.05c-.78 4.22-1.02 9.02-2.41 13.07-1.66 4.84-6.2 2.91-9.92 2.22L183.65 254c-2.48-.46-6.53-.45-8.76-1.87-3.8-2.43-.31-12.6.54-16.03 1.24-5.05 5.04-3.72 8.76-3.04l15.76 2.91c6.63 1.22 13.26 2.45 19.9 3.67 4.05.75 10.94.62 10.41 6.29-.39 4.23 6.21 4.2 6.6 0 .65-6.93-4.35-10.65-10.45-11.77l-18.86-3.48-20.97-3.87c-4.84-.89-9.94-2.34-14.11 1.37-4.52 4.03-4.78 12.72-5.63 18.29-.97 6.38 2.42 11.41 8.75 12.73 12.78 2.68 25.73 4.75 38.57 7.12 5.26.97 11.46 3.14 16.22-.34 5.36-3.92 5.27-13.25 6.36-19.17.77-4.15-5.59-5.93-6.36-1.75ZM77.99 197.78c-3.49-5.23-7.78-9.58-12.61-13.59s-10.78-8.04-14-13.86c-1.1-1.99-2.23-4.66-1.91-7.01.66-4.78 5.53-2.5 8.1-.69 5.9 4.15 11.31 8.94 17.29 12.99 5.12 3.48 10.27 6.95 15.97 9.42s14.41 3.42 17.62 9.44c2.76 5.18 2.77 12.25 2.52 17.92-.27 6.26-.25 12.13 1.47 18.22 1.15 4.08 7.52 2.35 6.36-1.75-2.26-8-.56-15.68-1.26-23.78-.52-5.99-1.67-13.4-6.27-17.7-5.92-5.53-14.53-6.44-21.46-10.12-8.02-4.27-15.39-9.86-22.51-15.44-5.1-3.99-11.61-10.39-18.69-7.42-5.07 2.12-6.35 7.57-5.43 12.55 2.82 15.38 21 22.04 29.1 34.16 2.35 3.52 8.07.21 5.7-3.33Z" style="stroke-width:0"/><path d="M81.56 235.74c-1.4-6.27-4.02-12.07-8.66-16.61s-10.07-7.25-15.23-10.66c-15.8-10.45-23.43-25.77-26.21-44.24-1.37-9.11-1.73-18.49-1.29-27.68.14-2.85-.49-10.36 1.75-12.58 3.9-3.85 5.66 5.59 6.09 7.8.69 3.59 1.09 7.22 1.1 10.88 0 3.96-1.26 8.33-.25 12.2.9 3.43 2.62 6.76 3.92 10.05 1.54 3.9 7.93 2.2 6.36-1.75-1.12-2.83-2.5-5.67-3.39-8.58-1.15-3.76-.03-8-.04-11.92 0-3.43-.38-6.82-.92-10.2-.81-5.03-1.82-12.04-6.79-14.76-4.11-2.25-9.47-.79-11.95 3.16-3.46 5.51-2.58 14.9-2.63 21.1-.07 8.02.47 16.1 1.68 24.03 2.27 14.89 7.75 29.88 18.99 40.35 5.84 5.44 12.83 9.19 19.38 13.66s10.03 9.91 11.72 17.51c.93 4.14 7.29 2.39 6.36-1.75Z" style="stroke-width:0"/><path d="M63.27 246.8c.97 5.26.97 12.73 4.32 17.16 3.72 4.9 9.07 4.05 14.27 3.09 13.35-2.46 26.7-4.93 40.05-7.39 5.43-1 10.75-3.07 11.46-9.48.57-5.05-1.3-11.59-2.54-16.43-1.79-6.94-7.89-8.7-14.19-7.54l-18.34 3.38-23.15 4.27c-6.52 1.2-12.75 4.08-12.01 12.06.39 4.19 7 4.23 6.6 0-.5-5.4 5.16-5.32 9.02-6.04l16.42-3.03 17.22-3.18c2.56-.47 7.6-2.44 10.15-1 2.12 1.19 2.19 4.39 2.58 6.52.52 2.81 1.37 5.74 1.59 8.59.37 4.88-3.84 5-7.43 5.66l-33.66 6.21c-2.86.53-8.84 2.9-11.7 1.29-2.4-1.35-2.49-6.01-2.92-8.39l-1.39-7.51c-.77-4.17-7.13-2.4-6.36 1.75ZM171.76 92.89c2.28 11.92-5.14 23.8-17.16 26.36-11.89 2.53-23.8-5.33-26.36-17.16s5.35-23.86 17.16-26.36 23.44 5.4 26.36 17.16c1.02 4.12 7.39 2.38 6.36-1.75-2.86-11.55-12.2-20.52-24.11-22.18s-24.18 4.51-29.66 15.36c-11.83 23.41 12.41 49.94 36.76 39.74 13.06-5.47 19.62-19.28 17.01-32.93-.8-4.17-7.16-2.4-6.36 1.75Z" style="stroke-width:0"/><path d="m200.16 70.36-9.22 2.02 3.73 1.52c-2.06-3.76-4.49-7.18-7.31-10.4l.52 4c2.32-3.63 5.9-7.68 6.54-12.05 1-6.85-4.13-10.18-9.12-13.37s-9.84-6.23-15.48-2.73c-3.89 2.41-6.2 7.66-8.6 11.4l3.73-1.52c-4.13-1.21-8.27-1.92-12.56-2.21l3.18 2.42c-.92-4.2-1.25-9.56-3.88-13.1-4.13-5.56-10.16-4.27-15.95-3s-11.29 2.54-12.83 8.96c-1.07 4.47 1.02 9.86 1.98 14.22l1.52-3.73c-3.76 2.06-7.18 4.49-10.4 7.31l4-.52c-3.63-2.32-7.68-5.9-12.05-6.54-6.85-1-10.18 4.13-13.37 9.12S88.36 72 91.86 77.64c2.41 3.89 7.66 6.2 11.4 8.6l-1.52-3.73c-1.21 4.13-1.92 8.27-2.21 12.56l2.42-3.18c-4.2.92-9.56 1.25-13.1 3.88-5.56 4.13-4.27 10.15-3 15.95s2.54 11.29 8.96 12.83c4.47 1.07 9.86-1.02 14.22-1.98l-3.73-1.52c2.06 3.76 4.49 7.18 7.31 10.4l-.52-4c-2.32 3.62-5.9 7.68-6.54 12.05-1 6.85 4.13 10.18 9.12 13.37s9.84 6.23 15.48 2.73c3.89-2.41 6.2-7.66 8.6-11.4l-3.73 1.52c4.13 1.21 8.27 1.92 12.56 2.21l-3.18-2.42c.92 4.2 1.25 9.56 3.88 13.1 4.13 5.56 10.16 4.27 15.95 3s11.29-2.54 12.83-8.96c1.07-4.47-1.02-9.86-1.98-14.22l-1.52 3.73c3.76-2.06 7.18-4.49 10.4-7.31l-4 .52c3.63 2.32 7.68 5.9 12.05 6.54 6.85 1 10.18-4.13 13.37-9.12s6.23-9.84 2.73-15.48c-2.41-3.89-7.66-6.2-11.4-8.6l1.52 3.73c1.21-4.13 1.92-8.27 2.21-12.56l-2.42 3.18c8.31-1.82 19.15-3.55 17.17-14.91-1.4-8.06-3.31-19.28-14.17-17.9-4.16.53-4.21 7.14 0 6.6 4.54-.58 5.46 2.39 6.24 5.92.49 2.25 1.37 4.72 1.54 7.02.42 5.77-8.41 6-12.54 6.9-1.48.33-2.33 1.78-2.42 3.18-.25 3.71-.93 7.24-1.97 10.81-.42 1.45.29 2.94 1.52 3.73 2.45 1.57 5.35 2.96 7.57 4.84 3.95 3.37.89 6.85-1.26 10.21s-4.02 7.49-8.82 5.05c-2.63-1.34-5.08-3.25-7.56-4.84-1.29-.83-2.92-.43-4 .52-2.81 2.46-5.79 4.49-9.07 6.28-1.33.73-1.83 2.32-1.52 3.73.62 2.83 1.72 5.88 1.92 8.77.36 5.15-4.28 5.44-8.16 6.3s-8.11 2.44-9.78-2.72c-.91-2.8-1.29-5.89-1.92-8.77-.33-1.48-1.78-2.33-3.18-2.42-3.71-.25-7.24-.93-10.81-1.97-1.45-.42-2.94.3-3.73 1.52-1.57 2.45-2.96 5.35-4.84 7.57-3.37 3.95-6.85.89-10.21-1.26s-7.49-4.02-5.05-8.82c1.34-2.63 3.25-5.08 4.84-7.56.83-1.29.43-2.92-.52-4-2.46-2.81-4.49-5.79-6.28-9.07-.73-1.33-2.32-1.83-3.73-1.52-2.83.62-5.88 1.72-8.77 1.92-5.15.36-5.44-4.28-6.3-8.16s-2.44-8.11 2.72-9.78c2.8-.91 5.89-1.29 8.77-1.92 1.48-.33 2.33-1.78 2.42-3.18.25-3.71.93-7.24 1.97-10.81.42-1.45-.3-2.94-1.52-3.73-2.45-1.57-5.35-2.96-7.56-4.84-3.95-3.37-.89-6.85 1.26-10.21s4.02-7.49 8.82-5.05c2.63 1.34 5.08 3.25 7.56 4.84 1.29.83 2.92.43 4-.52 2.81-2.46 5.79-4.49 9.07-6.28 1.33-.73 1.83-2.32 1.52-3.73-.63-2.85-1.67-5.87-1.92-8.77-.44-5.13 4.33-5.46 8.16-6.3 4.02-.88 8.11-2.44 9.78 2.72.91 2.8 1.29 5.89 1.92 8.77.33 1.48 1.78 2.33 3.18 2.42 3.71.25 7.24.93 10.81 1.97 1.45.42 2.94-.3 3.73-1.52 1.57-2.45 2.96-5.35 4.84-7.56 3.37-3.95 6.85-.89 10.21 1.26s7.49 4.02 5.05 8.82c-1.34 2.63-3.25 5.08-4.84 7.57-.83 1.29-.43 2.92.52 4 2.46 2.81 4.49 5.79 6.28 9.07.73 1.33 2.32 1.83 3.73 1.52l9.22-2.02c4.15-.91 2.39-7.27-1.75-6.36Z" style="stroke-width:0"/></svg>