<svg xmlns="http://www.w3.org/2000/svg" width="300" height="300" viewBox="0 0 300 300"><path d="M227.45 151.76c3.4-24.98-2.12-50.04-16.35-70.94-2.38-3.49-8.1-.19-5.7 3.33 13.16 19.32 18.84 42.65 15.68 65.86-.56 4.15 5.79 5.95 6.36 1.75Zm-107.59 77.2c-47.9-5.26-84.46-47.4-82.63-95.54 1.63-42.76 33.5-79.36 75.47-87.24 23.03-4.33 46.96.6 66.72 13.02 3.61 2.27 6.92-3.44 3.33-5.7C143.85 29.06 91.8 34.51 59.3 67.23c-32.34 32.56-37.94 85.05-12.92 123.6 16.46 25.36 43.55 41.45 73.47 44.73 4.22.46 4.18-6.14 0-6.6Zm71.24-78.79c2.83-14.63.85-29.17-5.86-42.48-1.91-3.79-7.61-.46-5.7 3.33 5.87 11.64 7.67 24.6 5.2 37.4-.8 4.15 5.56 5.93 6.36 1.75Z" style="stroke-width:0"/><path d="M153.57 86.06c3.83 1.77 7.19-3.92 3.33-5.7-24.44-11.26-53.77-6.57-72.63 12.99-18.67 19.36-22.8 49.26-10.37 73.06 8.19 15.69 22.93 26.97 39.91 31.56 4.1 1.11 5.86-5.25 1.75-6.36-32.91-8.91-51.34-45.35-37.73-76.92 12.49-28.98 47.3-41.73 75.74-28.63Z" style="stroke-width:0"/><path d="M156.12 140.83c.65-4.16-5.71-5.95-6.36-1.75-2.49 15.94-21.8 24.6-34.17 12.6-12.25-11.88-4.98-31.55 11.06-34.67 4.17-.81 2.4-7.17-1.75-6.36-20.95 4.07-29.6 30.57-13.97 45.7 15.62 15.11 41.91 5.59 45.2-15.51Z" style="stroke-width:0"/><path d="M191.6 54.65c1.01 2.16 1.94 5.4 3.31 7.99-19.26 20.51-38.52 41.02-57.78 61.54l-9.89 10.54c-2.91 3.09 1.75 7.77 4.67 4.67l67.77-72.18c2.67 1.29 5.98 2.13 8.36 3.14 3.86 1.63 7.73 3.26 11.59 4.89 1.03.43 2.48-.09 3.21-.85l34.13-35.45c.43-.26.76-.65 1.01-1.11 1.34-1.74.48-3.86-1.04-4.82-.03-.02-.05-.03-.08-.05-.11-.07-.22-.13-.34-.18-.09-.04-.16-.1-.25-.14-3.41-1.44-6.82-2.87-10.22-4.31-2.42-1.02-4.84-2.04-7.27-3.06-.75-.32-1.54-.74-2.33-1.01 0-.03-.02-.04-.02-.07-.18-.83-.81-1.73-1.16-2.49-1.1-2.35-2.19-4.7-3.29-7.05-1.63-3.5-3.27-7-4.9-10.5-.9-1.93-3.81-2.09-5.18-.67l-34.88 36.23c-1.1 1.14-1.15 2.63-.52 4 1.7 3.65 3.41 7.3 5.11 10.95Zm44.98-30.02c.46.26.23.42 0 0Zm-4.56 4.77c2.72 2.29 7.66 3.35 10.89 4.71 2.26.95 4.52 1.9 6.78 2.86-10 10.39-20.01 20.78-30.01 31.17-2.84-1.2-5.68-2.39-8.52-3.59-2.15-.91-4.3-1.81-6.45-2.72 2.35-2.5 4.69-5 7.04-7.5 2.91-3.09-1.75-7.77-4.67-4.67-2.35 2.5-4.7 5.01-7.05 7.51-.98-2.1-1.96-4.2-2.94-6.31-1.27-2.72-2.54-5.45-3.81-8.17 10-10.38 20-20.77 29.99-31.15l3.21 6.88c1.47 3.16 2.8 8.67 5.54 10.98Zm-57.54 144.32c-.23-.01-.46-.06-.68-.13h-.17c.48.23.82.2.86.13Z" style="stroke-width:0"/><path d="M250.44 197.9c-3.18.27-5.83 1.5-8.51 3.14-1.85 1.13-5.07 3.06-6.34-.14-1-2.54 0-7.52 0-10.21 0-8 2.01-19.55-7.58-22.97-3.7-1.32-8.32-.7-12.17-.7h-40.93c-1.04-.11-2.17 0-3.04 0h-10.26c-5.47 0-12.88-1.21-17.68 2.02-5.68 3.82-4.96 10.39-4.96 16.32v17.49c0 .47.1.91.28 1.3 1.49 5.41 7.4 8.8 13.03 6.47 4.63-1.92 7.12-5.58 12.8-3.87 4.57 1.38 7.74 5.71 7.74 10.47 0 4.48-2.76 8.52-6.93 10.16-5.61 2.2-8.59-1.18-13.22-3.39-5.71-2.73-12.04.86-13.48 6.5-.14.36-.22.73-.22 1.11v14.67c0 5.58-.45 11.32 4.63 15.09 4.15 3.08 9.76 2.28 14.63 2.28h14.68c4.67.63-1.09 8.08-1.74 9.65-1.63 3.89-1.8 8.21-.5 12.23 2.3 7.09 9.19 11.97 16.62 11.97s13.89-4.58 16.41-11.35c1.45-3.89 1.46-8.27-.01-12.16-.63-1.68-6.78-9.7-2.02-10.34h15.15c5.34 0 11.29.8 15.43-3.35 4.06-4.06 3.34-9.75 3.34-14.97V229.7c.58-4.31 6.87.35 8.21 1.07 2.92 1.56 6.26 2.25 9.55 2.01 6.21-.46 11.74-4.38 14.4-9.97 5.71-12-4.11-26.06-17.31-24.92Zm10.2 24c-2.67 3.55-7.24 5.14-11.55 3.94-3.32-.93-5.39-3.98-8.88-4.45-5.22-.71-9.62 2.13-10.92 6.91-.19.4-.3.88-.3 1.42v12.25c0 3.42 1.35 10.91-1.41 13.67-2.7 2.7-9.83 1.41-13.18 1.41h-12.74c-.45 0-.85.1-1.21.25-5.46 1.45-8.9 7.4-6.56 13.05 1.92 4.63 5.58 7.12 3.87 12.8-1.38 4.57-5.71 7.74-10.47 7.74-4.48 0-8.52-2.76-10.16-6.93-2.2-5.61 1.18-8.59 3.39-13.22 2.72-5.7-.85-12.01-6.47-13.47-.37-.14-.76-.23-1.14-.23h-11.26c-3.83 0-8.54.76-12.29-.23-5.21-1.38-3.79-8.78-3.79-12.92v-12.28c.63-4.67 8.08 1.09 9.65 1.74 3.89 1.63 8.21 1.8 12.23.5 7.09-2.3 11.97-9.19 11.97-16.62s-4.58-13.89-11.35-16.41c-3.89-1.45-8.27-1.46-12.16.01-1.68.63-9.7 6.78-10.34 2.02v-13.18c0-3.58-1.49-11.73 1.41-14.62 2.83-2.83 10.62-1.41 14.13-1.41h9.3c.95 0 1.97.11 2.92 0l.3-.03c-.34-.16-.75-.45-1.17-.94.41.48.87.77 1.34.93.52-.01.71.07.68.13.31.02.62-.01.92-.1h28.15c6.56 0 13.33-.51 19.87 0 4.34.34 5.56 3.15 5.56 6.98v12.52c0 6.89-.87 14.27 7.77 16 7.13 1.43 10.96-6.43 18.33-4.26 7.17 2.11 10.01 11.11 5.55 17.03Z" style="stroke-width:0"/></svg>