<svg xmlns="http://www.w3.org/2000/svg" width="300" height="300" viewBox="0 0 300 300"><path d="M114.7 111.27h55.27c4.25 0 4.25-6.6 0-6.6H114.7c-4.25 0-4.25 6.6 0 6.6Zm-50.04.42 10.82 9.44c1.27 1.11 3.43 1.42 4.67 0l18.88-21.64c2.78-3.19-1.87-7.87-4.67-4.67l-18.88 21.64h4.67l-10.82-9.44c-3.19-2.78-7.87 1.87-4.67 4.67Zm50.04 53.83h55.27c4.25 0 4.25-6.6 0-6.6H114.7c-4.25 0-4.25 6.6 0 6.6Zm-50.04.41 10.82 9.44c1.27 1.11 3.43 1.42 4.67 0l18.88-21.64c2.78-3.19-1.87-7.87-4.67-4.67L75.48 170.7h4.67l-10.82-9.44c-3.19-2.78-7.87 1.87-4.67 4.67Zm50.04 53.84h19.53c4.25 0 4.25-6.6 0-6.6H114.7c-4.25 0-4.25 6.6 0 6.6Zm-50.04.41 10.82 9.44c1.27 1.11 3.43 1.42 4.67 0l18.88-21.64c2.78-3.19-1.87-7.87-4.67-4.67l-18.88 21.64h4.67l-10.82-9.44c-3.19-2.78-7.87 1.87-4.67 4.67Zm139.36-67.72V78.25c0-4.69.52-9.71-.14-14.37-1.89-13.23-16.76-11-26.45-11-4.25 0-4.25 6.6 0 6.6 6.36 0 19.19-2.61 20 6.35.43 4.8 0 9.85 0 14.67v71.97c0 4.25 6.6 4.25 6.6 0Z" style="stroke-width:0"/><path d="M59.54 52.88c-10.73 0-26.09-1.95-26.6 13.16-.21 6.1 0 12.24 0 18.35v157.42c0 6.19-1.08 13.58 3.72 18.38 3.44 3.44 7.74 3.72 12.23 3.72h90.88c4.25 0 4.25-6.6 0-6.6H80.08c-11 0-22.05.31-33.04 0-7.72-.22-7.49-5.99-7.49-11.71V69.17c0-2.14-.31-4.76.83-6.66 3.09-5.14 14.09-3.03 19.16-3.03 4.25 0 4.25-6.6 0-6.6Zm63.82-10.26c-.34 6.25-9.76 6.31-9.76 0s9.42-6.25 9.76 0c.23 4.22 6.83 4.25 6.6 0-.33-6.22-4.99-11.48-11.48-11.48S107.03 36.39 107 42.62s4.99 11.18 11.03 11.45c6.66.3 11.58-5.08 11.92-11.45.23-4.24-6.37-4.23-6.6 0Z" style="stroke-width:0"/><path d="M159.08 39.32h-17.4l3.3 3.3c-.42-14.41-11.77-26.5-26.5-26.5s-26.08 12.09-26.5 26.5l3.3-3.3c-5.69 0-11.44-.26-17.12 0-8.42.39-11.63 6.73-11.63 14.25s-1.27 16.49 7.14 19.87c3.1 1.25 6.76.86 10.04.86h42.7c10.76 0 21.65.48 32.4 0 9-.4 11.61-7.34 11.61-15.13 0-3.43.48-7.29-.22-10.68-1.15-5.55-5.71-8.73-11.13-9.17-4.23-.34-4.21 6.26 0 6.6 6.59.53 5.04 11.56 4.76 16.21s-3.43 5.58-7.33 5.58H90.19c-3.53 0-7.08.11-10.61 0-4.3-.13-6.46-2.38-6.46-6.86 0-5.6-1.94-14.49 5.79-14.92 5.42-.3 10.93 0 16.36 0 1.82 0 3.25-1.51 3.3-3.3.31-10.87 8.82-19.85 19.9-19.9s19.59 9.1 19.9 19.9c.05 1.78 1.47 3.3 3.3 3.3h17.4c4.25 0 4.25-6.6 0-6.6Zm81.57 226.62-6.92-5.75c-1.14-.94-2.66-1.31-4-.52-4.56 2.7-9.31 4.49-14.5 5.5-1.01.2-2.15 1.27-2.3 2.3-.35 2.35-.12 6.53-1.29 8.58-1.24 2.18-5.13.87-7.3.68-1.97-.17-6.52.31-7.48-1.42s.14-6.78.18-8.86c.03-1.56-1.07-2.67-2.42-3.18a42.91 42.91 0 0 1-12.64-7.46c-1.13-.96-2.65-1.29-4-.52-1.97 1.14-5.14 3.96-7.34 4.25s-3.94-3.98-5.15-5.78c-.92-1.38-4.07-4.67-3.39-6.28.74-1.75 5.17-3.96 6.74-5.16 1.14-.87 2-2.22 1.52-3.73-1.63-5.1-2.34-10.13-2.17-15.48.05-1.57-1.08-2.65-2.42-3.18-1.89-.75-6.63-1.62-7.89-3.12-1.17-1.39.94-5.28 1.47-6.92.64-1.98 1.15-6.67 3.32-7.05s6.09 1.53 8.23 2.07c1.5.38 2.89-.27 3.73-1.52 2.77-4.14 6.1-7.68 10.1-10.67 1.16-.87 1.98-2.22 1.52-3.73-.66-2.14-2.83-6.11-2.55-8.3s4.68-2.84 6.71-3.61c1.87-.71 5.35-3.01 7.13-1.58s2.75 6.05 3.67 8.06c.44.97 1.8 1.72 2.85 1.63 5.28-.42 10.28-.03 15.42 1.3 1.5.39 2.88-.28 3.73-1.52 1.21-1.78 2.96-6.01 4.79-7.02 1.71-.95 5.22 2.11 6.79 3.05s5.9 2.5 5.89 4.51c-.02 2.11-2.86 5.63-3.85 7.57-.69 1.35-.54 2.88.52 4 3.64 3.85 6.41 8.12 8.56 12.95.43.97 1.81 1.71 2.85 1.63 2.25-.17 6.55-1.4 8.65-.65 2.23.8 1.88 5.08 2.17 7.12.3 2.16 1.74 6.24.09 7.5-1.77 1.35-6.46 1.33-8.68 1.79-1 .21-2.16 1.26-2.3 2.3-.74 5.23-2.21 10.11-4.64 14.8-.7 1.35-.52 2.88.52 4l4.02 4.33c1.74 1.88 2.43 2.1.96 4.11-1.14 1.56-7.49 9.64-9.51 8.43-3.65-2.19-6.97 3.51-3.33 5.7 7.37 4.42 13.83-5.17 18.1-10.08 5.94-6.84-.95-12.17-5.57-17.15l.52 4c2.69-5.2 4.49-10.57 5.31-16.37l-2.3 2.3c3.68-.76 8.91-.87 11.85-3.44 3.8-3.32 2.09-8.69 1.48-13.01s-.36-9.53-4.41-11.96c-3.48-2.08-9.11-.59-12.9-.31l2.85 1.63c-2.38-5.35-5.57-10.04-9.59-14.29l.52 4c1.69-3.33 4.87-7.54 4.91-11.4.04-5.31-5.45-7.42-9.31-9.71s-7.99-5.83-12.53-3.72c-3.61 1.68-5.95 6.93-8.09 10.06l3.73-1.52c-5.67-1.47-11.33-2.01-17.18-1.54l2.85 1.63c-1.57-3.45-2.85-8.61-6.13-10.85-4.09-2.8-9.02.15-13.03 1.67s-9.16 2.51-10.5 7c-1.17 3.89 1.51 9.03 2.63 12.69l1.52-3.73c-4.94 3.69-9.03 7.91-12.46 13.04l3.73-1.52c-3.63-.91-8.45-3.09-12.23-2.19-5.1 1.22-5.92 7.06-7.29 11.31s-3.9 9.06-.74 13c2.48 3.1 8.09 4.22 11.63 5.61l-2.42-3.18c-.18 5.91.61 11.6 2.4 17.24l1.52-3.73c-2.95 2.26-7.61 4.67-9.4 8.03-2.56 4.8 1.43 9.05 3.96 12.83 2.36 3.53 4.66 8.74 9.53 8.97 4.03.18 8.42-3.56 11.72-5.46l-4-.52c4.71 3.99 9.78 6.97 15.56 9.16l-2.42-3.18c-.07 3.76-1.11 8.9.68 12.37 2.32 4.52 7.93 4.06 12.27 4.43s9.43 1.76 12.71-1.58c2.86-2.9 2.64-8.68 3.2-12.44l-2.3 2.3c5.74-1.12 11.04-3.2 16.07-6.17l-4-.52 6.92 5.75c3.24 2.7 7.94-1.95 4.67-4.67Z" style="stroke-width:0"/><path d="M228.11 226.01c-.31 10.46-8.5 19.21-19.21 19.21-10.51 0-19.17-8.74-19.21-19.21s8.35-18.84 18.53-19.19c10.98-.38 19.58 8.46 19.9 19.19.13 4.24 6.73 4.26 6.6 0-.32-10.62-6.46-20.13-16.48-24.04s-22.31-.84-29.29 7.71c-14.78 18.1 1.22 45.55 24.21 41.77 12.54-2.06 21.18-12.97 21.55-25.43.13-4.25-6.47-4.24-6.6 0Z" style="stroke-width:0"/></svg>