<svg xmlns="http://www.w3.org/2000/svg" width="300" height="300" viewBox="0 0 300 300"><path d="m191.67 120.73 48.36 24.18L150 189.94l-90.03-45.03 48.57-24.29m131.51 65v49.32L150 280v-90.05l23.83 28.81 66.22-33.14zM150 189.95V280l-90.05-45.06v-49.32l66.22 33.14L150 189.95z" style="fill:none;stroke:#31353f;stroke-linecap:round;stroke-linejoin:round;stroke-width:6.29px"/><path d="m150 189.95-23.83 28.81-66.22-33.14-23.76-11.92 23.76-28.81L150 189.95zm113.81-16.25-23.76 11.92-66.22 33.14L150 189.95l90.05-45.06 23.76 28.81zM149.97 20c-28.38 0-51.38 23.01-51.38 51.38s21.82 35.6 30.32 65.51h42.13c8.5-29.91 30.32-37.13 30.32-65.51S178.35 20 149.98 20Zm21.1 130.87h-42.2a6.99 6.99 0 0 1-6.99-6.99h0a6.99 6.99 0 0 1 6.99-6.99h42.2a6.99 6.99 0 0 1 6.99 6.99h0a6.99 6.99 0 0 1-6.99 6.99Zm-41.58 0c0 9.2 9.17 16.65 20.48 16.65s20.48-7.46 20.48-16.65h-40.96Z" style="fill:none;stroke:#31353f;stroke-linecap:round;stroke-linejoin:round;stroke-width:6.29px"/><path d="M149.95 136.89v-30.78c0-3.62 2.93-6.55 6.55-6.55h6.77c3.62 0 6.55-2.93 6.55-6.55h0c0-3.62-2.93-6.55-6.55-6.55h-29.9c-3.62 0-6.55-2.93-6.55-6.55v-.03c0-3.62 2.93-6.55 6.55-6.55h10.03c3.62 0 6.55-2.93 6.55-6.55V45.72" style="fill:none;stroke:#31353f;stroke-linecap:round;stroke-linejoin:round;stroke-width:6.29px"/></svg>