<svg xmlns="http://www.w3.org/2000/svg" width="300" height="300" viewBox="0 0 300 300"><path d="M60.84 36h145.48c13.72 0 24.84 11.12 24.84 24.84v14.19" style="fill:none;stroke:#464646;stroke-linecap:round;stroke-linejoin:round;stroke-width:6px"/><path d="M110.52 256h120.65c13.66 0 24.84-11.18 24.84-24.84H135.36c0 13.66-11.18 24.84-24.84 24.84h0c-13.66 0-24.84-11.18-24.84-24.84V60.84C85.68 47.18 74.5 36 60.84 36h0C47.18 36 36 47.18 36 60.84h21.29" style="fill:none;stroke:#464646;stroke-linecap:round;stroke-linejoin:round;stroke-width:6px"/><circle cx="185.03" cy="138.9" r="56.77" style="fill:none;stroke:#464646;stroke-linecap:round;stroke-linejoin:round;stroke-width:6px"/><path d="m256 209.87-30.82-30.82m-61.44-72.08h21.29m-35.48 31.93h35.48m-21.29 31.94h21.29m-50.99-56.78h-23.52m17.74 24.84h-17.74m0 24.84h23.52" style="fill:none;stroke:#464646;stroke-linecap:round;stroke-linejoin:round;stroke-width:6px"/></svg>