<svg xmlns="http://www.w3.org/2000/svg" width="300" height="300" viewBox="0 0 300 300"><path d="m267.1 151.59-45.08-60.44c-2.58-3.49-7.5-4.23-11-1.65l-12.38 9.15c-3.49 2.58-4.23 7.5-1.65 11l50.08 67.75c2.58 3.49 7.5 4.23 11 1.65l11.93-7.84M32.9 151.13l45.08-60.44c2.58-3.49 7.5-4.23 11-1.65l12.38 9.15c3.49 2.58 4.23 7.5 1.65 11l-50.08 67.75c-2.58 3.49-7.5 4.23-11 1.65L30 170.75m156.61-.12-40.31-22.41" style="fill:none;stroke:#31353f;stroke-linecap:round;stroke-linejoin:round;stroke-width:6.37px"/><path d="M53.91 175.61c9.82 9.47 15.63 17.72 22.28 26.04m169.5-26.13c-6.91 6.66-12.15 13.08-16.83 19.05" style="fill:none;stroke:#31353f;stroke-linecap:round;stroke-linejoin:round;stroke-width:6.37px"/><path d="m186.61 170.63 40.44 22.67c5.26 2.95 7.14 9.61 4.19 14.88h0c-2.95 5.26-9.61 7.14-14.88 4.19l-40.44-22.67m0 0 32.94 18.47c5.26 2.95 7.14 9.61 4.19 14.88h0c-2.95 5.26-9.61 7.14-14.88 4.19l-32.94-18.47" style="fill:none;stroke:#31353f;stroke-linecap:round;stroke-linejoin:round;stroke-width:6.37px"/><path d="m165.23 208.77 25.66 14.38c5.26 2.95 7.14 9.61 4.19 14.88h0c-2.95 5.26-9.61 7.14-14.88 4.19l-25.66-14.38" style="fill:none;stroke:#31353f;stroke-linecap:round;stroke-linejoin:round;stroke-width:6.37px"/><path d="m154.55 227.83 17.41 9.76c5.26 2.95 7.14 9.61 4.19 14.88h0c-2.95 5.26-9.61 7.14-14.88 4.19l-12.18-6.83m-48.83-136.92 26.94.6c2.98.07 5.92.79 8.6 2.11l7.26 3.58" style="fill:none;stroke:#31353f;stroke-linecap:round;stroke-linejoin:round;stroke-width:6.37px"/><path d="m117.03 253.93 13.56-14.39c4.14-4.39 11.06-4.6 15.45-.46h0c4.39 4.14 4.6 11.06.46 15.45l-13.56 14.39c-4.14 4.39-11.06 4.6-15.45.46h0c-4.39-4.14-4.6-11.06-.46-15.45Z" style="fill:none;stroke:#31353f;stroke-linecap:round;stroke-linejoin:round;stroke-width:6.37px"/><path d="m101.12 238.94 20.95-22.23c4.14-4.39 11.06-4.6 15.45-.46h0c4.39 4.14 4.6 11.06.46 15.45l-20.95 22.23c-4.14 4.39-11.06 4.6-15.45.46h0c-4.39-4.14-4.6-11.06-.46-15.45Z" style="fill:none;stroke:#31353f;stroke-linecap:round;stroke-linejoin:round;stroke-width:6.37px"/><path d="m85.21 223.95 22.78-24.18c4.14-4.39 11.06-4.6 15.45-.46h0c4.39 4.14 4.6 11.06.46 15.45l-22.78 24.18c-4.14 4.39-11.06 4.6-15.45.46h0c-4.39-4.14-4.6-11.06-.46-15.45Z" style="fill:none;stroke:#31353f;stroke-linecap:round;stroke-linejoin:round;stroke-width:6.37px"/><path d="m69.3 208.97 16.63-17.65c4.14-4.39 11.06-4.6 15.45-.46h0c4.39 4.14 4.6 11.06.46 15.45l-16.63 17.65c-4.14 4.39-11.06 4.6-15.45.46h0c-4.39-4.14-4.6-11.06-.46-15.45Zm77-60.75-14.27 8.25c-10.01 5.79-22.83 2.34-28.59-7.69h0a5.85 5.85 0 0 1 2.15-7.97l51.02-29.4a23.416 23.416 0 0 1 15.57-2.73l27.6 4.73m-49.96-85.76v32.47m32.25-27.55-12.84 30.52m41.21-16.35-24.15 24.88M89.18 46.71l24.15 24.88m4.22-39.03 12.85 30.51" style="fill:none;stroke:#31353f;stroke-linecap:round;stroke-linejoin:round;stroke-width:6.37px"/><circle cx="45.58" cy="159.28" r="3.64" style="fill:none;stroke:#31353f;stroke-linecap:round;stroke-linejoin:round;stroke-width:6.37px"/><circle cx="254.03" cy="159.28" r="3.64" style="fill:none;stroke:#31353f;stroke-linecap:round;stroke-linejoin:round;stroke-width:6.37px"/></svg>