<svg xmlns="http://www.w3.org/2000/svg" width="300" height="300" viewBox="0 0 300 300"><path d="M175.7 81.01c.13.03.27.03.4.03h-.46s.05-.02.06-.03Zm23.08.03h-.46c.13 0 .27 0 .4-.03.02.02.05.02.06.03Z" style="opacity:.1;stroke-width:0"/><path d="M206.18 146.72c-1.1 1.66-2.67 2.98-4.7 3.97-2.03.99-4.37 1.56-7.05 1.71v4.12c0 .5-.16.92-.49 1.25s-.76.49-1.3.49c-.5 0-.92-.15-1.25-.46-.33-.31-.49-.74-.49-1.28v-4.12c-4.18-.27-8.08-1.18-11.71-2.73-.47-.19-.85-.51-1.16-.96a2.45 2.45 0 0 1-.46-1.42c0-.66.22-1.22.67-1.71.44-.48 1.01-.73 1.71-.73.39 0 .75.08 1.1.23 3.13 1.39 6.42 2.16 9.86 2.32v-13.34c-2.63-.7-4.84-1.45-6.64-2.26-1.8-.81-3.3-1.96-4.49-3.45-1.2-1.49-1.8-3.37-1.8-5.65 0-2.01.49-3.86 1.48-5.57.99-1.7 2.45-3.11 4.41-4.23 1.95-1.12 4.3-1.8 7.05-2.03v-4.06c0-.5.17-.93.49-1.27.33-.35.75-.52 1.25-.52s.92.17 1.27.52.52.77.52 1.27v4c3.79.16 7.15.79 10.09 1.91 1.08.39 1.62 1.16 1.62 2.32 0 .62-.21 1.18-.64 1.68-.43.5-.99.75-1.68.75-.23 0-.54-.08-.92-.23-2.63-.93-5.45-1.45-8.47-1.56v13.8c2.78.66 5.1 1.37 6.93 2.14 1.84.77 3.37 1.92 4.61 3.45 1.24 1.53 1.85 3.55 1.85 6.06 0 2.05-.55 3.9-1.65 5.57Zm-20.99-20.47c1.29.93 3.19 1.72 5.71 2.38v-12.76c-2.32.31-4.18 1.01-5.57 2.12-1.39 1.1-2.09 2.54-2.09 4.32s.65 3.02 1.94 3.94Zm17.42 14.55c0-1.51-.68-2.68-2.06-3.51-1.37-.83-3.41-1.61-6.12-2.35v12.47c5.45-.39 8.18-2.59 8.18-6.61Z" style="stroke-width:0"/><path d="m265.94 192.52-64.98 43.07c-2.17 1.4-4.62 2.2-7.17 2.27l-52.44 1.79-34.67 1.17c-2.48.08-4.95.43-7.35 1l-20.32 5.03-12.74-50.58 42.08-19.56c9.78-4.16 20.73-6.46 31.53-7.61 19.43-2.09 38.3-.38 48.66.97 2.45.31 4.7 1.38 6.46 2.94 1.79 1.58 3.11 3.68 3.73 6.08.26.97.33 1.94.26 2.89-.33 3.6-2.96 6.74-6.74 7.46l-29.21 5.77c-3.09.61-2.76 5.13.38 5.34l32.14 1.66c2.17.1 4.31-.26 6.28-1.15l55.51-24.36a8.86 8.86 0 0 1 3.6-.77c2.83 0 5.57 1.33 7.33 3.75 3.04 4.14 1.97 9.98-2.32 12.84Z" style="fill:none;stroke:#000;stroke-linecap:round;stroke-linejoin:round;stroke-width:6px"/><path d="M253 151.87c-1.33 16.44-11.82 23.44-30.1 28.01-7.17 1.38-15.27 1.94-23.92 2.09.08-.94 0-1.91-.26-2.89-.61-2.4-1.94-4.49-3.73-6.08a12.061 12.061 0 0 0-6.46-2.94c-10.37-1.35-29.23-3.06-48.66-.97-5.23-5.54-7.94-13.4-7.25-24.43 1.56-24.89 19.89-52.85 43.07-63.65.13.03.28.03.41.03h33.5c.13 0 .28 0 .41-.03 23.18 10.8 41.54 38.76 43.1 63.65.15 2.58.1 4.95-.1 7.2ZM218.32 50.14c-1.33 4.28-3.74 10.54-7.66 15.68-.34-.02-.71-.05-1.06-.05h-33.51c-.49 0-.96.02-1.43.1-3.72-5.15-6.03-11.47-7.31-15.76-.74-2.46 1.38-4.83 3.89-4.36 2.44.47 5.54 1.28 8.81 2.68 1.95.81 4.11-.17 4.7-2.17 1.43-4.75 3.45-8.91 5.12-11.87 1.31-2.31 4.63-2.31 5.93 0 1.67 2.95 3.72 7.12 5.12 11.87.59 1.99 2.78 2.98 4.7 2.17 3.25-1.4 6.35-2.22 8.79-2.68 2.51-.47 4.65 1.92 3.89 4.38Z" style="fill:none;stroke:#000;stroke-linecap:round;stroke-linejoin:round;stroke-width:6px"/><path d="M219.8 73.45a7.55 7.55 0 0 1-7.3 7.57c-.09.02-.2.02-.28.02H173.2c-.09 0-.2 0-.28-.02a7.369 7.369 0 0 1-5.07-2.21 7.522 7.522 0 0 1-2.23-5.36c0-3.83 2.85-7 6.55-7.51.34-.05.68-.07 1.03-.07h39.02a7.61 7.61 0 0 1 5.38 2.23 7.66 7.66 0 0 1 2.21 5.36ZM30.17 198.32l16.31 64.8c.74 3.01 3.8 4.81 6.81 4.04l23.65-5.45c3.01-.77 4.84-3.8 4.1-6.81l-2.02-8.03-12.74-50.59-1.54-6.14c-.74-3.01-3.8-4.81-6.81-4.04l-23.65 5.45c-3.01.77-4.84 3.78-4.1 6.78Z" style="fill:none;stroke:#000;stroke-linecap:round;stroke-linejoin:round;stroke-width:6px"/></svg>